<svg width="58" height="50" viewBox="0 0 58 50" fill="none" xmlns="http://www.w3.org/2000/svg">
<path fill-rule="evenodd" clip-rule="evenodd" d="M58.0755 8.00452C49.4762 12.2233 45.1766 17.1803 45.1766 22.8756C48.8419 23.2975 51.8727 24.7916 54.2693 27.358C56.6658 29.9245 57.8641 32.8951 57.8641 36.2701C57.8641 39.8561 56.7011 42.8795 54.375 45.3405C52.049 47.8014 49.1238 49.0319 45.5995 49.0319C41.6522 49.0319 38.2337 47.4323 35.3438 44.233C32.4538 41.0338 31.0089 37.1491 31.0089 32.5787C31.0089 18.8677 38.6918 8.14518 54.0578 0.410767L58.0755 8.00452ZM27.112 8.00452C18.4421 12.2233 14.1073 17.1803 14.1073 22.8756C17.8431 23.2975 20.9092 24.7916 23.3057 27.358C25.7023 29.9245 26.9005 32.8951 26.9005 36.2701C26.9005 39.8561 25.7199 42.8795 23.3586 45.3405C20.9973 47.8014 18.0545 49.0319 14.5302 49.0319C10.583 49.0319 7.18205 47.4323 4.32734 44.233C1.47264 41.0338 0.0453129 37.1491 0.0453129 32.5787C0.0453129 18.8677 7.69298 8.14518 22.9885 0.410767L27.112 8.00452Z" fill="#D6D6D6"/>
</svg>
